<?xml version="1.0" encoding="utf-8"?>
<!-- Generator: Adobe Illustrator 27.0.0, SVG Export Plug-In . SVG Version: 6.00 Build 0)  -->
<svg version="1.1" id="Layer_1" xmlns="http://www.w3.org/2000/svg" xmlns:xlink="http://www.w3.org/1999/xlink" x="0px" y="0px"
	 viewBox="0 0 68 68" style="enable-background:new 0 0 68 68;" xml:space="preserve">
<style type="text/css">
	.st0{fill:none;stroke:#000000;stroke-miterlimit:10;}
	.st1{font-family:'AvenirNext-Medium';}
	.st2{font-size:12px;}
	.st3{fill:none;stroke:#000000;stroke-width:0.5;stroke-miterlimit:10;}
</style>
<g>
	<rect x="1.5" y="1.5" class="st0" width="65" height="65"/>
	<text transform="matrix(1 0 0 1 25.108 57.7214)" class="st1 st2">bin</text>
	<g>
		<g>
			<circle cx="13.04" cy="34.83" r="2"/>
			<circle cx="19.04" cy="34.83" r="2"/>
			<circle cx="25.04" cy="34.83" r="2"/>
			<circle cx="31.04" cy="34.83" r="2"/>
			<circle cx="37.04" cy="34.83" r="2"/>
			<circle cx="43.04" cy="34.83" r="2"/>
			<circle cx="49.04" cy="34.83" r="2"/>
			<circle cx="55.04" cy="34.83" r="2"/>
		</g>
		<g>
			<circle cx="13.04" cy="40.33" r="2"/>
			<circle cx="19.04" cy="40.33" r="2"/>
			<circle cx="25.04" cy="40.33" r="2"/>
			<circle cx="31.04" cy="40.33" r="2"/>
			<circle cx="37.04" cy="40.33" r="2"/>
			<circle cx="43.04" cy="40.33" r="2"/>
			<circle cx="49.04" cy="40.33" r="2"/>
			<circle cx="55.04" cy="40.33" r="2"/>
		</g>
		<g>
			<circle cx="13.04" cy="29.33" r="2"/>
			<circle cx="19.04" cy="29.33" r="2"/>
			<circle cx="31.04" cy="29.33" r="2"/>
			<circle cx="37.04" cy="29.33" r="2"/>
			<circle cx="43.04" cy="29.33" r="2"/>
			<circle cx="49.04" cy="29.33" r="2"/>
			<circle cx="55.04" cy="29.33" r="2"/>
		</g>
		<g>
			<circle cx="13.04" cy="23.83" r="2"/>
			<circle cx="19.04" cy="23.83" r="2"/>
			<circle cx="31.04" cy="23.83" r="2"/>
			<circle cx="37.04" cy="23.83" r="2"/>
			<circle cx="43.04" cy="23.83" r="2"/>
			<circle cx="55.04" cy="23.83" r="2"/>
		</g>
		<g>
			<circle cx="13.04" cy="18.33" r="2"/>
			<circle cx="37.04" cy="18.33" r="2"/>
			<circle cx="43.04" cy="18.33" r="2"/>
			<circle cx="55.04" cy="18.33" r="2"/>
		</g>
		<rect x="9.54" y="9.83" class="st3" width="13" height="34"/>
		<rect x="22.54" y="9.83" class="st3" width="12" height="34"/>
		<rect x="34.54" y="9.83" class="st3" width="12" height="34"/>
		<rect x="46.54" y="9.83" class="st3" width="12" height="34"/>
	</g>
</g>
</svg>
