<?xml version="1.0" encoding="utf-8"?>
<!-- Generator: Adobe Illustrator 27.0.0, SVG Export Plug-In . SVG Version: 6.00 Build 0)  -->
<svg version="1.1" id="Layer_1" xmlns="http://www.w3.org/2000/svg" xmlns:xlink="http://www.w3.org/1999/xlink" x="0px" y="0px"
	 viewBox="0 0 68 68" style="enable-background:new 0 0 68 68;" xml:space="preserve">
<style type="text/css">
	.st0{fill:none;stroke:#000000;stroke-miterlimit:10;}
	.st1{font-family:'AvenirNext-Medium';}
	.st2{font-size:12px;}
	.st3{fill:none;stroke:#000000;stroke-miterlimit:10;stroke-dasharray:2.0667,2.0667;}
</style>
<g>
	<rect x="1.5" y="1.5" class="st0" width="65" height="65"/>
	<text transform="matrix(1 0 0 1 18.5381 59.5619)" class="st1 st2">mean</text>
	<path class="st0" d="M9,40c6.92-1.57,10.24-4.53,12-7c2.45-3.44,1.75-5.81,5-10c1.6-2.06,4.79-6.18,9-6c4.2,0.18,7.05,4.54,8,6
		c3,4.6,1.6,7.38,4,11c1.45,2.18,4.37,4.8,11,6"/>
	<g>
		<g>
			<line class="st0" x1="34.5" y1="8" x2="34.5" y2="9"/>
			<line class="st3" x1="34.5" y1="11.07" x2="34.5" y2="38.97"/>
			<line class="st0" x1="34.5" y1="40" x2="34.5" y2="41"/>
		</g>
	</g>
</g>
</svg>
