<?xml version="1.0" encoding="utf-8"?>
<!-- Generator: Adobe Illustrator 27.0.0, SVG Export Plug-In . SVG Version: 6.00 Build 0)  -->
<svg version="1.1" id="Layer_1" xmlns="http://www.w3.org/2000/svg" xmlns:xlink="http://www.w3.org/1999/xlink" x="0px" y="0px"
	 viewBox="0 0 68 68" style="enable-background:new 0 0 68 68;" xml:space="preserve">
<style type="text/css">
	.st0{fill:none;stroke:#000000;stroke-miterlimit:10;}
	.st1{opacity:0.5;fill:#93278F;stroke:#000000;stroke-miterlimit:10;}
	.st2{font-family:'AvenirNext-Medium';}
	.st3{font-size:12px;}
</style>
<g>
	<rect x="1.5" y="1.5" class="st0" width="65" height="65"/>
	<g>
		<path class="st1" d="M17,32.5c1.65-9.37,4.52-12.25,7-13c5.27-1.6,10.05,5.99,18,5c3.99-0.5,7.02-2.94,9-5c0,4.33,0,8.67,0,13
			C39.67,32.5,28.33,32.5,17,32.5z"/>
		<path class="st0" d="M17,32.5c1.65-9.37,4.52-12.25,7-13c5.27-1.6,10.05,5.99,18,5c3.99-0.5,7.02-2.94,9-5c0,4.33,0,8.67,0,13
			C39.67,32.5,28.33,32.5,17,32.5z"/>
	</g>
	<text transform="matrix(1 0 0 1 22.1688 50.5863)" class="st2 st3">area</text>
</g>
</svg>
